<?xml version="1.0" encoding="UTF-8" standalone="no"?><!DOCTYPE svg PUBLIC "-//W3C//DTD SVG 1.1//EN" "http://www.w3.org/Graphics/SVG/1.1/DTD/svg11.dtd"><!-- Generated by graphviz version 2.40.1 (20161225.0304)
 --><!-- Title: %0 Pages: 1 --><svg xmlns="http://www.w3.org/2000/svg" xmlns:xlink="http://www.w3.org/1999/xlink" width="412pt" height="265pt" viewBox="0.00 0.00 411.54 264.80">
<g id="graph0" class="graph" transform="scale(1 1) rotate(0) translate(4 260.8)">
<title>%0</title>
<polygon fill="#ffffff" stroke="transparent" points="-4,4 -4,-260.8 407.5422,-260.8 407.5422,4 -4,4"/>
<g id="clust1" class="cluster">
<title>cluster_signed_xact</title>
<polygon fill="#d3d3d3" stroke="#000000" points="297.4594,-36 297.4594,-148 395.5422,-148 395.5422,-36 297.4594,-36"/>
</g>
<g id="clust4" class="cluster">
<title>cluster_wallet_mgr</title>
<polygon fill="none" stroke="#000000" stroke-dasharray="5,2" points="8,-8 8,-151 258.1571,-151 258.1571,-8 8,-8"/>
<text text-anchor="middle" x="133.0786" y="-16.2" font-family="Times,serif" font-size="14.00" fill="#000000">Wallet Manager</text>
</g>
<!-- signed_xact -->
<g id="node1" class="node">
<title>signed_xact</title>
<polygon fill="transparent" stroke="transparent" points="387.5837,-139.6019 305.418,-139.6019 305.418,-98.3981 387.5837,-98.3981 387.5837,-139.6019"/>
<text text-anchor="middle" x="346.5008" y="-123.2" font-family="Times,serif" font-size="14.00" fill="#000000">Signed</text>
<text text-anchor="middle" x="346.5008" y="-106.4" font-family="Times,serif" font-size="14.00" fill="#000000">Transaction</text>
</g>
<!-- signatures -->
<g id="node2" class="node">
<title>signatures</title>
<polygon fill="#d3d3d3" stroke="#000000" points="387.5823,-80 305.4194,-80 305.4194,-44 387.5823,-44 387.5823,-80"/>
<text text-anchor="middle" x="346.5008" y="-57.8" font-family="Times,serif" font-size="14.00" fill="#000000">signature(s)</text>
</g>
<!-- xact -->
<g id="node3" class="node">
<title>xact</title>
<polygon fill="#d3d3d3" stroke="#000000" points="262.4946,-251 180.3289,-251 180.3289,-215 262.4946,-215 262.4946,-251"/>
<text text-anchor="middle" x="221.4117" y="-228.8" font-family="Times,serif" font-size="14.00" fill="#000000">Transaction</text>
</g>
<!-- sha256 -->
<g id="node5" class="node">
<title>sha256</title>
<ellipse fill="none" stroke="#000000" cx="221.4117" cy="-179" rx="48.0955" ry="18"/>
<text text-anchor="middle" x="221.4117" y="-174.8" font-family="Times,serif" font-size="14.00" fill="#000000">SHA-256</text>
</g>
<!-- xact&#45;&gt;sha256 -->
<g id="edge1" class="edge">
<title>xact-&gt;sha256</title>
<path fill="none" stroke="#000000" d="M221.5422,-214.7181C221.5422,-214.7181 221.5422,-202.2631 221.5422,-202.2631"/>
<polygon fill="#000000" stroke="#000000" points="223.2923,-202.2631 221.5422,-197.2631 219.7923,-202.2631 223.2923,-202.2631"/>
</g>
<!-- chainID -->
<g id="node4" class="node">
<title>chainID</title>
<polygon fill="#d3d3d3" stroke="#000000" points="110.3916,-197 42.9724,-197 42.9724,-161 110.3916,-161 110.3916,-197"/>
<text text-anchor="middle" x="76.682" y="-174.8" font-family="Times,serif" font-size="14.00" fill="#000000">Chain ID</text>
</g>
<!-- chainID&#45;&gt;sha256 -->
<g id="edge2" class="edge">
<title>chainID-&gt;sha256</title>
<path fill="none" stroke="#000000" d="M110.6147,-179C110.6147,-179 168.1693,-179 168.1693,-179"/>
<polygon fill="#000000" stroke="#000000" points="168.1693,-180.7501 173.1693,-179 168.1693,-177.2501 168.1693,-180.7501"/>
</g>
<!-- xact_dig -->
<g id="node6" class="node">
<title>xact_dig</title>
<polygon fill="#d3d3d3" stroke="#000000" points="387.5837,-199.6019 305.418,-199.6019 305.418,-158.3981 387.5837,-158.3981 387.5837,-199.6019"/>
<text text-anchor="middle" x="346.5008" y="-183.2" font-family="Times,serif" font-size="14.00" fill="#000000">Transaction</text>
<text text-anchor="middle" x="346.5008" y="-166.4" font-family="Times,serif" font-size="14.00" fill="#000000">Digest</text>
</g>
<!-- sha256&#45;&gt;xact_dig -->
<g id="edge3" class="edge">
<title>sha256-&gt;xact_dig</title>
<path fill="none" stroke="#000000" d="M266.9256,-185C266.9256,-185 300.3768,-185 300.3768,-185"/>
<polygon fill="#000000" stroke="#000000" points="300.3769,-186.7501 305.3768,-185 300.3768,-183.2501 300.3769,-186.7501"/>
</g>
<!-- sign -->
<g id="node10" class="node">
<title>sign</title>
<ellipse fill="none" stroke="#000000" cx="221.4117" cy="-122" rx="28.9929" ry="18"/>
<text text-anchor="middle" x="221.4117" y="-117.8" font-family="Times,serif" font-size="14.00" fill="#000000">Sign</text>
</g>
<!-- xact_dig&#45;&gt;sign -->
<g id="edge6" class="edge">
<title>xact_dig-&gt;sign</title>
<path fill="none" stroke="#000000" d="M305.2318,-173C295.3232,-173 287.5422,-173 287.5422,-173 287.5422,-173 287.5422,-121.9 287.5422,-121.9 287.5422,-121.9 255.2251,-121.9 255.2251,-121.9"/>
<polygon fill="#000000" stroke="#000000" points="255.2252,-120.1501 250.2251,-121.9 255.2251,-123.6501 255.2252,-120.1501"/>
</g>
<!-- pub_key -->
<g id="node7" class="node">
<title>pub_key</title>
<polygon fill="#d3d3d3" stroke="#000000" points="137.5465,-256.6019 15.8175,-256.6019 15.8175,-215.3981 137.5465,-215.3981 137.5465,-256.6019"/>
<text text-anchor="middle" x="76.682" y="-240.2" font-family="Times,serif" font-size="14.00" fill="#000000">Signing account(s)</text>
<text text-anchor="middle" x="76.682" y="-223.4" font-family="Times,serif" font-size="14.00" fill="#000000">Public Key(s)</text>
</g>
<!-- wallet -->
<g id="node9" class="node">
<title>wallet</title>
<polygon fill="#d3d3d3" stroke="#000000" points="137.5465,-82.6019 15.8175,-82.6019 15.8175,-41.3981 137.5465,-41.3981 137.5465,-82.6019"/>
<text text-anchor="middle" x="76.682" y="-66.2" font-family="Times,serif" font-size="14.00" fill="#000000">Signing account(s)</text>
<text text-anchor="middle" x="76.682" y="-49.4" font-family="Times,serif" font-size="14.00" fill="#000000">Wallet</text>
</g>
<!-- pub_key&#45;&gt;wallet -->
<g id="edge4" class="edge">
<title>pub_key-&gt;wallet</title>
<path fill="none" stroke="#000000" d="M137.6476,-233.1C148.0324,-233.1 155.5422,-233.1 155.5422,-233.1 155.5422,-233.1 155.5422,-56 155.5422,-56 155.5422,-56 142.6476,-56 142.6476,-56"/>
<polygon fill="#000000" stroke="#000000" points="142.6477,-54.2501 137.6476,-56 142.6476,-57.7501 142.6477,-54.2501"/>
</g>
<!-- pri_key -->
<g id="node8" class="node">
<title>pri_key</title>
<polygon fill="#d3d3d3" stroke="#000000" points="137.5465,-142.6019 15.8175,-142.6019 15.8175,-101.3981 137.5465,-101.3981 137.5465,-142.6019"/>
<text text-anchor="middle" x="76.682" y="-126.2" font-family="Times,serif" font-size="14.00" fill="#000000">Signing account(s)</text>
<text text-anchor="middle" x="76.682" y="-109.4" font-family="Times,serif" font-size="14.00" fill="#000000">Private Key(s)</text>
</g>
<!-- pri_key&#45;&gt;sign -->
<g id="edge7" class="edge">
<title>pri_key-&gt;sign</title>
<path fill="none" stroke="#000000" d="M137.641,-122C137.641,-122 187.4619,-122 187.4619,-122"/>
<polygon fill="#000000" stroke="#000000" points="187.4619,-123.7501 192.4619,-122 187.4618,-120.2501 187.4619,-123.7501"/>
</g>
<!-- wallet&#45;&gt;pri_key -->
<g id="edge5" class="edge">
<title>wallet-&gt;pri_key</title>
<path fill="none" stroke="#000000" d="M77.5422,-82.6486C77.5422,-82.6486 77.5422,-96.1097 77.5422,-96.1097"/>
<polygon fill="#000000" stroke="#000000" points="75.7923,-96.1096 77.5422,-101.1097 79.2923,-96.1097 75.7923,-96.1096"/>
</g>
<!-- sign&#45;&gt;signatures -->
<g id="edge8" class="edge">
<title>sign-&gt;signatures</title>
<path fill="none" stroke="#000000" d="M221.5422,-103.7181C221.5422,-88.0522 221.5422,-68 221.5422,-68 221.5422,-68 300.2384,-68 300.2384,-68"/>
<polygon fill="#000000" stroke="#000000" points="300.2384,-69.7501 305.2384,-68 300.2384,-66.2501 300.2384,-69.7501"/>
</g>
</g>
</svg>