<?xml version="1.0" encoding="UTF-8" standalone="no"?><!DOCTYPE svg PUBLIC "-//W3C//DTD SVG 1.1//EN" "http://www.w3.org/Graphics/SVG/1.1/DTD/svg11.dtd"><!-- Generated by graphviz version 2.40.1 (20161225.0304)
 --><!-- Title: %0 Pages: 1 --><svg xmlns="http://www.w3.org/2000/svg" xmlns:xlink="http://www.w3.org/1999/xlink" width="430pt" height="335pt" viewBox="0.00 0.00 430.19 335.00">
<g id="graph0" class="graph" transform="scale(1 1) rotate(0) translate(4 331)">
<title>%0</title>
<polygon fill="#ffffff" stroke="transparent" points="-4,4 -4,-331 426.1886,-331 426.1886,4 -4,4"/>
<g id="clust1" class="cluster">
<title>cluster_accts</title>
<polygon fill="none" stroke="#000000" stroke-dasharray="5,2" points="8,-126 8,-269 79.3176,-269 79.3176,-126 8,-126"/>
<text text-anchor="middle" x="43.6588" y="-252.4" font-family="Times,serif" font-size="14.00" fill="#000000">Accounts</text>
</g>
<g id="clust2" class="cluster">
<title>cluster_perms</title>
<polygon fill="none" stroke="#000000" stroke-dasharray="5,2" points="113.3176,-8 113.3176,-319 212.1886,-319 212.1886,-8 113.3176,-8"/>
<text text-anchor="middle" x="162.7531" y="-302.4" font-family="Times,serif" font-size="14.00" fill="#000000">Permissions</text>
</g>
<g id="clust3" class="cluster">
<title>cluster_alice_perm</title>
<polygon fill="none" stroke="#000000" points="121.3176,-48 121.3176,-286 204.1886,-286 204.1886,-48 121.3176,-48"/>
<text text-anchor="middle" x="162.7531" y="-269.4" font-family="Times,serif" font-size="14.00" fill="#000000">@alice</text>
<text text-anchor="middle" x="162.7531" y="-252.6" font-family="Times,serif" font-size="14.00" fill="#000000">permissions</text>
</g>
<g id="clust4" class="cluster">
<title>cluster_auths</title>
<polygon fill="none" stroke="#000000" stroke-dasharray="5,2" points="246.1886,-47 246.1886,-310 414.1886,-310 414.1886,-47 246.1886,-47"/>
<text text-anchor="middle" x="330.1886" y="-293.4" font-family="Times,serif" font-size="14.00" fill="#000000">Authorities</text>
</g>
<!-- @alice -->
<g id="node1" class="node">
<title>@alice</title>
<polygon fill="none" stroke="#000000" points="71.4773,-236.3008 15.8403,-236.3008 15.8403,-211.6992 71.4773,-211.6992 71.4773,-236.3008"/>
<text text-anchor="middle" x="43.6588" y="-219.8" font-family="Times,serif" font-size="14.00" fill="#000000">@alice</text>
</g>
<!-- owner -->
<g id="node5" class="node">
<title>owner</title>
<polygon fill="none" stroke="#000000" points="189.7531,-236.3008 135.7531,-236.3008 135.7531,-211.6992 189.7531,-211.6992 189.7531,-236.3008"/>
<text text-anchor="middle" x="162.7531" y="-219.8" font-family="Times,serif" font-size="14.00" fill="#000000">owner</text>
</g>
<!-- @alice&#45;&gt;owner -->
<g id="edge5" class="edge">
<title>@alice-&gt;owner</title>
<path fill="none" stroke="#000000" d="M71.5811,-224C71.5811,-224 98.8679,-224 116.276,-224"/>
<polygon fill="#000000" stroke="#000000" points="116.3202,-225.7501 121.3202,-224 116.3202,-222.2501 116.3202,-225.7501"/>
</g>
<!-- @bob -->
<g id="node2" class="node">
<title>@bob</title>
<polygon fill="none" stroke="#000000" points="70.6588,-197.3008 16.6588,-197.3008 16.6588,-172.6992 70.6588,-172.6992 70.6588,-197.3008"/>
<text text-anchor="middle" x="43.6588" y="-180.8" font-family="Times,serif" font-size="14.00" fill="#000000">@bob</text>
</g>
<!-- more_accts -->
<g id="node3" class="node">
<title>more_accts</title>
<polygon fill="none" stroke="transparent" points="70.6588,-158.3008 16.6588,-158.3008 16.6588,-133.6992 70.6588,-133.6992 70.6588,-158.3008"/>
<text text-anchor="middle" x="43.6588" y="-141.8" font-family="Times,serif" font-size="14.00" fill="#000000">...</text>
</g>
<!-- active -->
<g id="node4" class="node">
<title>active</title>
<polygon fill="none" stroke="#000000" points="189.7531,-197.3008 135.7531,-197.3008 135.7531,-172.6992 189.7531,-172.6992 189.7531,-197.3008"/>
<text text-anchor="middle" x="162.7531" y="-180.8" font-family="Times,serif" font-size="14.00" fill="#000000">active</text>
</g>
<!-- active&#45;&gt;owner -->
<g id="edge1" class="edge">
<title>active-&gt;owner</title>
<path fill="none" stroke="#000000" d="M163.1886,-197.3398C163.1886,-197.3398 163.1886,-206.6066 163.1886,-206.6066"/>
<polygon fill="#000000" stroke="#000000" points="161.4387,-206.6065 163.1886,-211.6066 164.9387,-206.6066 161.4387,-206.6065"/>
</g>
<!-- active_auth -->
<g id="node10" class="node">
<title>active_auth</title>
<polygon fill="none" stroke="#000000" points="262.1886,-251 262.1886,-273 398.1886,-273 398.1886,-251 262.1886,-251"/>
<text text-anchor="start" x="265.0438" y="-257.4" font-family="Times,serif" font-size="14.00" fill="#000000">@alice active authority</text>
<polygon fill="#d3d3d3" stroke="transparent" points="262.1886,-229 262.1886,-251 398.1886,-251 398.1886,-229 262.1886,-229"/>
<polygon fill="none" stroke="#000000" points="262.1886,-229 262.1886,-251 398.1886,-251 398.1886,-229 262.1886,-229"/>
<text text-anchor="start" x="304.1381" y="-235.4" font-family="Times,serif" font-size="14.00" fill="#000000">threshold</text>
<polygon fill="none" stroke="#000000" points="262.1886,-207 262.1886,-229 398.1886,-229 398.1886,-207 262.1886,-207"/>
<text text-anchor="start" x="326.6886" y="-213.4" font-family="Times,serif" font-size="14.00" fill="#000000">2</text>
<polygon fill="#d3d3d3" stroke="transparent" points="262.1886,-185 262.1886,-207 347.1886,-207 347.1886,-185 262.1886,-185"/>
<polygon fill="none" stroke="#000000" points="262.1886,-185 262.1886,-207 347.1886,-207 347.1886,-185 262.1886,-185"/>
<text text-anchor="start" x="265.4242" y="-191.4" font-family="Times,serif" font-size="14.00" fill="#000000">accounts/keys</text>
<polygon fill="#d3d3d3" stroke="transparent" points="347.1886,-185 347.1886,-207 398.1886,-207 398.1886,-185 347.1886,-185"/>
<polygon fill="none" stroke="#000000" points="347.1886,-185 347.1886,-207 398.1886,-207 398.1886,-185 347.1886,-185"/>
<text text-anchor="start" x="350.9151" y="-191.4" font-family="Times,serif" font-size="14.00" fill="#000000">weights</text>
<polygon fill="none" stroke="#000000" points="262.1886,-163 262.1886,-185 347.1886,-185 347.1886,-163 262.1886,-163"/>
<text text-anchor="start" x="271.0298" y="-169.4" font-family="Times,serif" font-size="14.00" fill="#000000">bob@active</text>
<polygon fill="none" stroke="#000000" points="347.1886,-163 347.1886,-185 398.1886,-185 398.1886,-163 347.1886,-163"/>
<text text-anchor="start" x="369.1886" y="-169.4" font-family="Times,serif" font-size="14.00" fill="#000000">2</text>
<polygon fill="none" stroke="#000000" points="262.1886,-141 262.1886,-163 347.1886,-163 347.1886,-141 262.1886,-141"/>
<text text-anchor="start" x="267.1476" y="-147.4" font-family="Times,serif" font-size="14.00" fill="#000000">stacy@active</text>
<polygon fill="none" stroke="#000000" points="347.1886,-141 347.1886,-163 398.1886,-163 398.1886,-141 347.1886,-141"/>
<text text-anchor="start" x="369.1886" y="-147.4" font-family="Times,serif" font-size="14.00" fill="#000000">2</text>
<polygon fill="none" stroke="#000000" points="262.1886,-119 262.1886,-141 347.1886,-141 347.1886,-119 262.1886,-119"/>
<text text-anchor="start" x="267.1644" y="-125.4" font-family="Times,serif" font-size="14.00" fill="#000000">EOS7Hnv4...</text>
<polygon fill="none" stroke="#000000" points="347.1886,-119 347.1886,-141 398.1886,-141 398.1886,-119 347.1886,-119"/>
<text text-anchor="start" x="369.1886" y="-125.4" font-family="Times,serif" font-size="14.00" fill="#000000">1</text>
<polygon fill="none" stroke="#000000" points="262.1886,-97 262.1886,-119 347.1886,-119 347.1886,-97 262.1886,-97"/>
<text text-anchor="start" x="265.6104" y="-103.4" font-family="Times,serif" font-size="14.00" fill="#000000">EOS3Wo1p...</text>
<polygon fill="none" stroke="#000000" points="347.1886,-97 347.1886,-119 398.1886,-119 398.1886,-97 347.1886,-97"/>
<text text-anchor="start" x="369.1886" y="-103.4" font-family="Times,serif" font-size="14.00" fill="#000000">1</text>
</g>
<!-- active&#45;&gt;active_auth -->
<g id="edge6" class="edge">
<title>active-&gt;active_auth</title>
<path fill="none" stroke="#000000" d="M190.0272,-185C190.0272,-185 249.1345,-185 249.1345,-185"/>
<polygon fill="#000000" stroke="#000000" points="249.1345,-186.7501 254.1345,-185 249.1345,-183.2501 249.1345,-186.7501"/>
</g>
<!-- family -->
<g id="node6" class="node">
<title>family</title>
<polygon fill="none" stroke="#000000" points="189.7531,-158.3008 135.7531,-158.3008 135.7531,-133.6992 189.7531,-133.6992 189.7531,-158.3008"/>
<text text-anchor="middle" x="162.7531" y="-141.8" font-family="Times,serif" font-size="14.00" fill="#000000">family</text>
</g>
<!-- family&#45;&gt;active -->
<g id="edge2" class="edge">
<title>family-&gt;active</title>
<path fill="none" stroke="#000000" d="M163.1886,-158.3398C163.1886,-158.3398 163.1886,-167.6066 163.1886,-167.6066"/>
<polygon fill="#000000" stroke="#000000" points="161.4387,-167.6065 163.1886,-172.6066 164.9387,-167.6066 161.4387,-167.6065"/>
</g>
<!-- friends -->
<g id="node7" class="node">
<title>friends</title>
<polygon fill="none" stroke="#000000" points="190.1243,-119.3008 135.3819,-119.3008 135.3819,-94.6992 190.1243,-94.6992 190.1243,-119.3008"/>
<text text-anchor="middle" x="162.7531" y="-102.8" font-family="Times,serif" font-size="14.00" fill="#000000">friends</text>
</g>
<!-- friends&#45;&gt;family -->
<g id="edge3" class="edge">
<title>friends-&gt;family</title>
<path fill="none" stroke="#000000" d="M163.1886,-119.3398C163.1886,-119.3398 163.1886,-128.6066 163.1886,-128.6066"/>
<polygon fill="#000000" stroke="#000000" points="161.4387,-128.6065 163.1886,-133.6066 164.9387,-128.6066 161.4387,-128.6065"/>
</g>
<!-- lawyer -->
<g id="node8" class="node">
<title>lawyer</title>
<polygon fill="none" stroke="#000000" points="189.8402,-80.3008 135.666,-80.3008 135.666,-55.6992 189.8402,-55.6992 189.8402,-80.3008"/>
<text text-anchor="middle" x="162.7531" y="-63.8" font-family="Times,serif" font-size="14.00" fill="#000000">lawyer</text>
</g>
<!-- lawyer&#45;&gt;active -->
<g id="edge4" class="edge">
<title>lawyer-&gt;active</title>
<path fill="none" stroke="#000000" d="M135.5283,-68C120.2345,-68 104.1886,-68 104.1886,-68 104.1886,-68 104.1886,-185 104.1886,-185 104.1886,-185 130.5283,-185 130.5283,-185"/>
<polygon fill="#000000" stroke="#000000" points="130.5283,-186.7501 135.5283,-185 130.5282,-183.2501 130.5283,-186.7501"/>
</g>
<!-- more_perms -->
<g id="node9" class="node">
<title>more_perms</title>
<polygon fill="none" stroke="transparent" points="189.7531,-40.3008 135.7531,-40.3008 135.7531,-15.6992 189.7531,-15.6992 189.7531,-40.3008"/>
<text text-anchor="middle" x="162.7531" y="-23.8" font-family="Times,serif" font-size="14.00" fill="#000000">...</text>
</g>
<!-- more_auths -->
<g id="node11" class="node">
<title>more_auths</title>
<polygon fill="none" stroke="transparent" points="357.1886,-79.3008 303.1886,-79.3008 303.1886,-54.6992 357.1886,-54.6992 357.1886,-79.3008"/>
<text text-anchor="middle" x="330.1886" y="-62.8" font-family="Times,serif" font-size="14.00" fill="#000000">...</text>
</g>
</g>
</svg>