<?xml version="1.0" encoding="UTF-8" standalone="no"?><!DOCTYPE svg PUBLIC "-//W3C//DTD SVG 1.1//EN" "http://www.w3.org/Graphics/SVG/1.1/DTD/svg11.dtd"><!-- Generated by graphviz version 2.40.1 (20161225.0304)
 --><!-- Title: %0 Pages: 1 --><svg xmlns="http://www.w3.org/2000/svg" xmlns:xlink="http://www.w3.org/1999/xlink" width="338pt" height="186pt" viewBox="0.00 0.00 338.00 185.60">
<g id="graph0" class="graph" transform="scale(1 1) rotate(0) translate(4 181.6)">
<title>%0</title>
<polygon fill="#ffffff" stroke="transparent" points="-4,4 -4,-181.6 334,-181.6 334,4 -4,4"/>
<g id="clust1" class="cluster">
<title>cluster_instance</title>
<polygon fill="none" stroke="#000000" points="8,-8 8,-169.6 322,-169.6 322,-8 8,-8"/>
<text text-anchor="middle" x="165" y="-153" font-family="Times,serif" font-size="14.00" fill="#000000">Transaction Instance</text>
</g>
<g id="clust2" class="cluster">
<title>cluster_actions</title>
<polygon fill="none" stroke="#000000" stroke-dasharray="5,2" points="16,-16 16,-92.8 313,-92.8 313,-16 16,-16"/>
<text text-anchor="middle" x="164.5" y="-76.2" font-family="Times,serif" font-size="14.00" fill="#000000">action list</text>
</g>
<!-- xact_header -->
<g id="node1" class="node">
<title>xact_header</title>
<polygon fill="#d3d3d3" stroke="#000000" points="141.9938,-136.8 16.0062,-136.8 16.0062,-100.8 141.9938,-100.8 141.9938,-136.8"/>
<text text-anchor="middle" x="79" y="-114.6" font-family="Times,serif" font-size="14.00" fill="#000000">Transaction Header</text>
</g>
<!-- xact_exts -->
<g id="node2" class="node">
<title>xact_exts</title>
<polygon fill="#d3d3d3" stroke="#000000" points="313.5204,-136.8 166.4796,-136.8 166.4796,-100.8 313.5204,-100.8 313.5204,-136.8"/>
<text text-anchor="middle" x="240" y="-114.6" font-family="Times,serif" font-size="14.00" fill="#000000">Transaction Extensions</text>
</g>
<!-- xact_header&#45;&gt;xact_exts -->
<g id="edge4" class="edge">
<title>xact_header-&gt;xact_exts</title>
<path fill="none" stroke="transparent" d="M142.2051,-118.8C148.2218,-118.8 154.2384,-118.8 160.2551,-118.8"/>
<polygon fill="transparent" stroke="transparent" points="160.2718,-120.9001 166.2718,-118.8 160.2718,-116.7001 160.2718,-120.9001"/>
</g>
<!-- bn -->
<g id="node6" class="node">
<title>bn</title>
<polygon fill="#d3d3d3" stroke="#000000" points="305.2111,-60 244.7889,-60 244.7889,-24 305.2111,-24 305.2111,-60"/>
<text text-anchor="middle" x="275" y="-37.8" font-family="Times,serif" font-size="14.00" fill="#000000">action n</text>
</g>
<!-- xact_exts&#45;&gt;bn -->
<g id="edge5" class="edge">
<title>xact_exts-&gt;bn</title>
<path fill="none" stroke="transparent" d="M248.2945,-100.5995C253.0456,-90.1742 259.0622,-76.972 264.1813,-65.7392"/>
<polygon fill="transparent" stroke="transparent" points="266.1877,-66.4005 266.765,-60.0699 262.3659,-64.6588 266.1877,-66.4005"/>
</g>
<!-- b1 -->
<g id="node3" class="node">
<title>b1</title>
<polygon fill="#d3d3d3" stroke="#000000" points="84.2111,-60 23.7889,-60 23.7889,-24 84.2111,-24 84.2111,-60"/>
<text text-anchor="middle" x="54" y="-37.8" font-family="Times,serif" font-size="14.00" fill="#000000">action 1</text>
</g>
<!-- b2 -->
<g id="node4" class="node">
<title>b2</title>
<polygon fill="#d3d3d3" stroke="#000000" points="169.2111,-60 108.7889,-60 108.7889,-24 169.2111,-24 169.2111,-60"/>
<text text-anchor="middle" x="139" y="-37.8" font-family="Times,serif" font-size="14.00" fill="#000000">action 2</text>
</g>
<!-- b1&#45;&gt;b2 -->
<g id="edge1" class="edge">
<title>b1-&gt;b2</title>
<path fill="none" stroke="#000000" d="M84.2148,-42C90.314,-42 96.4131,-42 102.5122,-42"/>
<polygon fill="#000000" stroke="#000000" points="102.6114,-44.1001 108.6114,-42 102.6113,-39.9001 102.6114,-44.1001"/>
</g>
<!-- bd -->
<g id="node5" class="node">
<title>bd</title>
<polygon fill="none" stroke="transparent" points="220.5048,-60 193.4952,-60 193.4952,-24 220.5048,-24 220.5048,-60"/>
<text text-anchor="middle" x="207" y="-37.8" font-family="Times,serif" font-size="14.00" fill="#000000">...</text>
</g>
<!-- b2&#45;&gt;bd -->
<g id="edge2" class="edge">
<title>b2-&gt;bd</title>
<path fill="none" stroke="#000000" d="M169.2813,-42C175.3958,-42 181.5104,-42 187.6249,-42"/>
<polygon fill="#000000" stroke="#000000" points="187.7395,-44.1001 193.7395,-42 187.7395,-39.9001 187.7395,-44.1001"/>
</g>
<!-- bd&#45;&gt;bn -->
<g id="edge3" class="edge">
<title>bd-&gt;bn</title>
<path fill="none" stroke="#000000" d="M220.2813,-42C226.373,-42 232.4647,-42 238.5565,-42"/>
<polygon fill="#000000" stroke="#000000" points="238.6482,-44.1001 244.6482,-42 238.6482,-39.9001 238.6482,-44.1001"/>
</g>
</g>
</svg>