<?xml version="1.0" encoding="UTF-8" standalone="no"?><!DOCTYPE svg PUBLIC "-//W3C//DTD SVG 1.1//EN" "http://www.w3.org/Graphics/SVG/1.1/DTD/svg11.dtd"><!-- Generated by graphviz version 2.40.1 (20161225.0304)
 --><!-- Title: %0 Pages: 1 --><svg xmlns="http://www.w3.org/2000/svg" xmlns:xlink="http://www.w3.org/1999/xlink" width="484pt" height="173pt" viewBox="0.00 0.00 484.00 173.00">
<g id="graph0" class="graph" transform="scale(1 1) rotate(0) translate(4 169)">
<title>%0</title>
<polygon fill="#ffffff" stroke="transparent" points="-4,4 -4,-169 480,-169 480,4 -4,4"/>
<g id="clust1" class="cluster">
<title>cluster_chain</title>
<polygon fill="none" stroke="transparent" points="8,-29 8,-94 228,-94 228,-29 8,-29"/>
<text text-anchor="middle" x="118" y="-37.2" font-family="Times,serif" font-size="14.00" fill="#000000">irreversible blocks</text>
</g>
<g id="clust2" class="cluster">
<title>cluster_forkdb</title>
<polygon fill="none" stroke="#000000" stroke-dasharray="5,2" points="248,-8 248,-157 468,-157 468,-8 248,-8"/>
<text text-anchor="middle" x="358" y="-16.2" font-family="Times,serif" font-size="14.00" fill="#000000">reversible blocks</text>
</g>
<!-- b0 -->
<g id="node1" class="node">
<title>b0</title>
<polygon fill="none" stroke="transparent" points="40,-86 16,-86 16,-62 40,-62 40,-86"/>
<text text-anchor="middle" x="28" y="-70.7" font-family="Times,serif" font-size="11.00" fill="#000000">...</text>
</g>
<!-- b1 -->
<g id="node2" class="node">
<title>b1</title>
<polygon fill="#d3d3d3" stroke="#000000" points="100,-86 76,-86 76,-62 100,-62 100,-86"/>
<text text-anchor="middle" x="88" y="-70.7" font-family="Times,serif" font-size="11.00" fill="#000000">49</text>
</g>
<!-- b0&#45;&gt;b1 -->
<g id="edge1" class="edge">
<title>b0-&gt;b1</title>
<path fill="none" stroke="#000000" d="M45.3174,-74C55.1039,-74 67.0974,-74 75.8762,-74"/>
<polygon fill="#000000" stroke="#000000" points="45.1419,-72.2501 40.1419,-74 45.1419,-75.7501 45.1419,-72.2501"/>
</g>
<!-- b2 -->
<g id="node3" class="node">
<title>b2</title>
<polygon fill="#d3d3d3" stroke="#000000" points="160,-86 136,-86 136,-62 160,-62 160,-86"/>
<text text-anchor="middle" x="148" y="-70.7" font-family="Times,serif" font-size="11.00" fill="#000000">50</text>
</g>
<!-- b1&#45;&gt;b2 -->
<g id="edge2" class="edge">
<title>b1-&gt;b2</title>
<path fill="none" stroke="#000000" d="M105.3174,-74C115.1039,-74 127.0974,-74 135.8762,-74"/>
<polygon fill="#000000" stroke="#000000" points="105.1419,-72.2501 100.1419,-74 105.1419,-75.7501 105.1419,-72.2501"/>
</g>
<!-- b3 -->
<g id="node4" class="node">
<title>b3</title>
<polygon fill="#d3d3d3" stroke="#000000" points="220,-86 196,-86 196,-62 220,-62 220,-86"/>
<text text-anchor="middle" x="208" y="-77.3" font-family="Times,serif" font-size="11.00" fill="#000000">51</text>
<text text-anchor="middle" x="208" y="-64.1" font-family="Times,serif" font-size="11.00" fill="#000000">(lib)</text>
</g>
<!-- b2&#45;&gt;b3 -->
<g id="edge3" class="edge">
<title>b2-&gt;b3</title>
<path fill="none" stroke="#000000" d="M165.3174,-74C175.1039,-74 187.0974,-74 195.8762,-74"/>
<polygon fill="#000000" stroke="#000000" points="165.1419,-72.2501 160.1419,-74 165.1419,-75.7501 165.1419,-72.2501"/>
</g>
<!-- a1b -->
<g id="node5" class="node">
<title>a1b</title>
<polygon fill="#d3d3d3" stroke="#000000" points="280,-107 256,-107 256,-83 280,-83 280,-107"/>
<text text-anchor="middle" x="268" y="-91.7" font-family="Times,serif" font-size="11.00" fill="#000000">52b</text>
</g>
<!-- b3&#45;&gt;a1b -->
<g id="edge10" class="edge">
<title>b3-&gt;a1b</title>
<path fill="none" stroke="#000000" d="M225.0461,-79.9661C234.8815,-83.4085 247.0161,-87.6556 255.8762,-90.7567"/>
<polygon fill="#000000" stroke="#000000" points="225.4393,-78.2497 220.1419,-78.2497 224.2831,-81.5532 225.4393,-78.2497"/>
</g>
<!-- a1c -->
<g id="node6" class="node">
<title>a1c</title>
<polygon fill="#d3d3d3" stroke="#000000" points="280,-65 256,-65 256,-41 280,-41 280,-65"/>
<text text-anchor="middle" x="268" y="-49.7" font-family="Times,serif" font-size="11.00" fill="#000000">52c</text>
</g>
<!-- b3&#45;&gt;a1c -->
<g id="edge11" class="edge">
<title>b3-&gt;a1c</title>
<path fill="none" stroke="#000000" d="M225.0461,-68.0339C234.8815,-64.5915 247.0161,-60.3444 255.8762,-57.2433"/>
<polygon fill="#000000" stroke="#000000" points="224.2831,-66.4468 220.1419,-69.7503 225.4393,-69.7503 224.2831,-66.4468"/>
</g>
<!-- a2c -->
<g id="node11" class="node">
<title>a2c</title>
<polygon fill="#d3d3d3" stroke="#000000" points="340,-107 316,-107 316,-83 340,-83 340,-107"/>
<text text-anchor="middle" x="328" y="-91.7" font-family="Times,serif" font-size="11.00" fill="#000000">53b</text>
</g>
<!-- a1b&#45;&gt;a2c -->
<g id="edge5" class="edge">
<title>a1b-&gt;a2c</title>
<path fill="none" stroke="#000000" d="M285.3174,-95C295.1039,-95 307.0974,-95 315.8762,-95"/>
<polygon fill="#000000" stroke="#000000" points="285.1419,-93.2501 280.1419,-95 285.1419,-96.7501 285.1419,-93.2501"/>
</g>
<!-- a2b -->
<g id="node12" class="node">
<title>a2b</title>
<polygon fill="#d3d3d3" stroke="#000000" points="340,-149 316,-149 316,-125 340,-125 340,-149"/>
<text text-anchor="middle" x="328" y="-133.7" font-family="Times,serif" font-size="11.00" fill="#000000">53a</text>
</g>
<!-- a1b&#45;&gt;a2b -->
<g id="edge4" class="edge">
<title>a1b-&gt;a2b</title>
<path fill="none" stroke="#000000" d="M284.2393,-106.3675C294.2111,-113.3478 306.7722,-122.1406 315.8762,-128.5133"/>
<polygon fill="#000000" stroke="#000000" points="285.2416,-104.933 280.1419,-103.4993 283.2345,-107.8003 285.2416,-104.933"/>
</g>
<!-- a2d -->
<g id="node7" class="node">
<title>a2d</title>
<polygon fill="#d3d3d3" stroke="#000000" points="340,-65 316,-65 316,-41 340,-41 340,-65"/>
<text text-anchor="middle" x="328" y="-49.7" font-family="Times,serif" font-size="11.00" fill="#000000">53c</text>
</g>
<!-- a1c&#45;&gt;a2d -->
<g id="edge7" class="edge">
<title>a1c-&gt;a2d</title>
<path fill="none" stroke="#000000" d="M285.3174,-53C295.1039,-53 307.0974,-53 315.8762,-53"/>
<polygon fill="#000000" stroke="#000000" points="285.1419,-51.2501 280.1419,-53 285.1419,-54.7501 285.1419,-51.2501"/>
</g>
<!-- a3d -->
<g id="node8" class="node">
<title>a3d</title>
<polygon fill="#d3d3d3" stroke="#000000" points="400,-65 376,-65 376,-41 400,-41 400,-65"/>
<text text-anchor="middle" x="388" y="-49.7" font-family="Times,serif" font-size="11.00" fill="#000000">54d</text>
</g>
<!-- a2d&#45;&gt;a3d -->
<g id="edge6" class="edge">
<title>a2d-&gt;a3d</title>
<path fill="none" stroke="#000000" d="M345.3174,-53C355.1039,-53 367.0974,-53 375.8762,-53"/>
<polygon fill="#000000" stroke="#000000" points="345.1419,-51.2501 340.1419,-53 345.1419,-54.7501 345.1419,-51.2501"/>
</g>
<!-- a3e -->
<g id="node9" class="node">
<title>a3e</title>
<polygon fill="#d3d3d3" stroke="#000000" points="400,-107 376,-107 376,-83 400,-83 400,-107"/>
<text text-anchor="middle" x="388" y="-91.7" font-family="Times,serif" font-size="11.00" fill="#000000">54c</text>
</g>
<!-- a2d&#45;&gt;a3e -->
<g id="edge8" class="edge">
<title>a2d-&gt;a3e</title>
<path fill="none" stroke="#000000" d="M344.2393,-64.3675C354.2111,-71.3478 366.7722,-80.1406 375.8762,-86.5133"/>
<polygon fill="#000000" stroke="#000000" points="345.2416,-62.933 340.1419,-61.4993 343.2345,-65.8003 345.2416,-62.933"/>
</g>
<!-- a4e -->
<g id="node10" class="node">
<title>a4e</title>
<polygon fill="#d3d3d3" stroke="#000000" points="460,-107 436,-107 436,-83 460,-83 460,-107"/>
<text text-anchor="middle" x="448" y="-98.3" font-family="Times,serif" font-size="11.00" fill="#000000">55c</text>
<text text-anchor="middle" x="448" y="-85.1" font-family="Times,serif" font-size="11.00" fill="#000000">(hb)</text>
</g>
<!-- a3e&#45;&gt;a4e -->
<g id="edge9" class="edge">
<title>a3e-&gt;a4e</title>
<path fill="none" stroke="#000000" d="M405.3174,-95C415.1039,-95 427.0974,-95 435.8762,-95"/>
<polygon fill="#000000" stroke="#000000" points="405.1419,-93.2501 400.1419,-95 405.1419,-96.7501 405.1419,-93.2501"/>
</g>
</g>
</svg>