<?xml version="1.0" encoding="UTF-8" standalone="no"?><!DOCTYPE svg PUBLIC "-//W3C//DTD SVG 1.1//EN" "http://www.w3.org/Graphics/SVG/1.1/DTD/svg11.dtd"><!-- Generated by graphviz version 2.40.1 (20161225.0304)
 --><!-- Title: %0 Pages: 1 --><svg xmlns="http://www.w3.org/2000/svg" xmlns:xlink="http://www.w3.org/1999/xlink" width="514pt" height="194pt" viewBox="0.00 0.00 514.21 194.00">
<g id="graph0" class="graph" transform="scale(1 1) rotate(0) translate(4 190)">
<title>%0</title>
<polygon fill="#ffffff" stroke="transparent" points="-4,4 -4,-190 510.2132,-190 510.2132,4 -4,4"/>
<g id="clust1" class="cluster">
<title>cluster_chain</title>
<polygon fill="none" stroke="transparent" points="8,-8 8,-178 371.2132,-178 371.2132,-8 8,-8"/>
<text text-anchor="middle" x="189.6066" y="-16.2" font-family="Times,serif" font-size="14.00" fill="#000000">irreversible blocks</text>
</g>
<g id="clust3" class="cluster">
<title>cluster_forkdb</title>
<polygon fill="none" stroke="#000000" stroke-dasharray="5,2" points="392.2132,-8 392.2132,-133 503.2132,-133 503.2132,-8 392.2132,-8"/>
<text text-anchor="middle" x="447.7132" y="-16.2" font-family="Times,serif" font-size="14.00" fill="#000000">reversible blocks</text>
</g>
<!-- b0 -->
<g id="node1" class="node">
<title>b0</title>
<polygon fill="none" stroke="transparent" points="40,-99 16,-99 16,-75 40,-75 40,-99"/>
<text text-anchor="middle" x="28" y="-83.7" font-family="Times,serif" font-size="11.00" fill="#000000">...</text>
</g>
<!-- b1 -->
<g id="node2" class="node">
<title>b1</title>
<polygon fill="#d3d3d3" stroke="#000000" points="101,-99 77,-99 77,-75 101,-75 101,-99"/>
<text text-anchor="middle" x="89" y="-83.7" font-family="Times,serif" font-size="11.00" fill="#000000">49</text>
</g>
<!-- b0&#45;&gt;b1 -->
<g id="edge1" class="edge">
<title>b0-&gt;b1</title>
<path fill="none" stroke="#000000" d="M45.1025,-87C55.2526,-87 67.8731,-87 76.9734,-87"/>
<polygon fill="#000000" stroke="#000000" points="45.0517,-85.2501 40.0516,-87 45.0516,-88.7501 45.0517,-85.2501"/>
</g>
<!-- b2 -->
<g id="node3" class="node">
<title>b2</title>
<polygon fill="#d3d3d3" stroke="#000000" points="162,-99 138,-99 138,-75 162,-75 162,-99"/>
<text text-anchor="middle" x="150" y="-83.7" font-family="Times,serif" font-size="11.00" fill="#000000">50</text>
</g>
<!-- b1&#45;&gt;b2 -->
<g id="edge2" class="edge">
<title>b1-&gt;b2</title>
<path fill="none" stroke="#000000" d="M106.1025,-87C116.2526,-87 128.8731,-87 137.9734,-87"/>
<polygon fill="#000000" stroke="#000000" points="106.0517,-85.2501 101.0516,-87 106.0516,-88.7501 106.0517,-85.2501"/>
</g>
<!-- b3 -->
<g id="node4" class="node">
<title>b3</title>
<polygon fill="#d3d3d3" stroke="#000000" points="223,-99 199,-99 199,-75 223,-75 223,-99"/>
<text text-anchor="middle" x="211" y="-83.7" font-family="Times,serif" font-size="11.00" fill="#000000">51</text>
</g>
<!-- b2&#45;&gt;b3 -->
<g id="edge3" class="edge">
<title>b2-&gt;b3</title>
<path fill="none" stroke="#000000" d="M167.1025,-87C177.2526,-87 189.8731,-87 198.9734,-87"/>
<polygon fill="#000000" stroke="#000000" points="167.0517,-85.2501 162.0516,-87 167.0516,-88.7501 167.0517,-85.2501"/>
</g>
<!-- a1b -->
<g id="node5" class="node">
<title>a1b</title>
<polygon fill="#d3d3d3" stroke="#000000" points="293.1066,-125 269.1066,-125 269.1066,-101 293.1066,-101 293.1066,-125"/>
<text text-anchor="middle" x="281.1066" y="-116.3" font-family="Times,serif" font-size="11.00" fill="#000000">52b</text>
<text text-anchor="middle" x="281.1066" y="-103.1" font-family="Times,serif" font-size="11.00" fill="#000000">(inv)</text>
</g>
<!-- b3&#45;&gt;a1b -->
<g id="edge4" class="edge">
<title>b3-&gt;a1b</title>
<path fill="none" stroke="#000000" d="M228.0116,-93.309C240.6992,-98.0144 257.722,-104.3275 269.0349,-108.523"/>
<polygon fill="#000000" stroke="#000000" points="228.5082,-91.6267 223.2116,-91.5289 227.2911,-94.9083 228.5082,-91.6267"/>
<text text-anchor="start" x="241" y="-105.2" font-family="Times,serif" font-size="14.00" fill="#ff0000">X</text>
</g>
<!-- a1c -->
<g id="node8" class="node">
<title>a1c</title>
<polygon fill="#d3d3d3" stroke="#000000" points="293.1066,-65 269.1066,-65 269.1066,-41 293.1066,-41 293.1066,-65"/>
<text text-anchor="middle" x="281.1066" y="-49.7" font-family="Times,serif" font-size="11.00" fill="#000000">52c</text>
</g>
<!-- b3&#45;&gt;a1c -->
<g id="edge5" class="edge">
<title>b3-&gt;a1c</title>
<path fill="none" stroke="#000000" d="M228.0116,-78.7498C240.6992,-72.5966 257.722,-64.3409 269.0349,-58.8545"/>
<polygon fill="#000000" stroke="#000000" points="226.9468,-77.3212 223.2116,-81.0777 228.4742,-80.4704 226.9468,-77.3212"/>
<text text-anchor="middle" x="246.0533" y="-77.2" font-family="Times,serif" font-size="14.00" fill="#000000"> </text>
</g>
<!-- a2c -->
<g id="node6" class="node">
<title>a2c</title>
<polygon fill="#d3d3d3" stroke="#000000" points="363.2132,-125 339.2132,-125 339.2132,-101 363.2132,-101 363.2132,-125"/>
<text text-anchor="middle" x="351.2132" y="-116.3" font-family="Times,serif" font-size="11.00" fill="#000000">53b</text>
<text text-anchor="middle" x="351.2132" y="-103.1" font-family="Times,serif" font-size="11.00" fill="#000000">(inv)</text>
</g>
<!-- a1b&#45;&gt;a2c -->
<g id="edge8" class="edge">
<title>a1b-&gt;a2c</title>
<path fill="none" stroke="#000000" d="M298.456,-113C311.1066,-113 327.9288,-113 339.1415,-113"/>
<polygon fill="#000000" stroke="#000000" points="298.3183,-111.2501 293.3182,-113 298.3182,-114.7501 298.3183,-111.2501"/>
<text text-anchor="start" x="311.1066" y="-117.2" font-family="Times,serif" font-size="14.00" fill="#ff0000">X</text>
</g>
<!-- a2b -->
<g id="node7" class="node">
<title>a2b</title>
<polygon fill="#d3d3d3" stroke="#000000" points="363.2132,-167 339.2132,-167 339.2132,-143 363.2132,-143 363.2132,-167"/>
<text text-anchor="middle" x="351.2132" y="-158.3" font-family="Times,serif" font-size="11.00" fill="#000000">53a</text>
<text text-anchor="middle" x="351.2132" y="-145.1" font-family="Times,serif" font-size="11.00" fill="#000000">(inv)</text>
</g>
<!-- a1b&#45;&gt;a2b -->
<g id="edge7" class="edge">
<title>a1b-&gt;a2b</title>
<path fill="none" stroke="#000000" d="M297.7824,-122.9902C310.5041,-130.6117 327.7285,-140.9306 339.1415,-147.768"/>
<polygon fill="#000000" stroke="#000000" points="298.5068,-121.3843 293.3182,-120.3158 296.7081,-124.3867 298.5068,-121.3843"/>
<text text-anchor="start" x="311.1066" y="-140.2" font-family="Times,serif" font-size="14.00" fill="#ff0000">X</text>
</g>
<!-- a3e -->
<g id="node11" class="node">
<title>a3e</title>
<polygon fill="#d3d3d3" stroke="#000000" points="429.2132,-125 405.2132,-125 405.2132,-101 429.2132,-101 429.2132,-125"/>
<text text-anchor="middle" x="417.2132" y="-109.7" font-family="Times,serif" font-size="11.00" fill="#000000">54c</text>
</g>
<!-- a2c&#45;&gt;a3e -->
<!-- a1c&#45;&gt;a1b -->
<!-- a2d -->
<g id="node9" class="node">
<title>a2d</title>
<polygon fill="#d3d3d3" stroke="#000000" points="363.2132,-65 339.2132,-65 339.2132,-41 363.2132,-41 363.2132,-65"/>
<text text-anchor="middle" x="351.2132" y="-56.3" font-family="Times,serif" font-size="11.00" fill="#000000">53c</text>
<text text-anchor="middle" x="351.2132" y="-43.1" font-family="Times,serif" font-size="11.00" fill="#000000">(lib)</text>
</g>
<!-- a1c&#45;&gt;a2d -->
<g id="edge9" class="edge">
<title>a1c-&gt;a2d</title>
<path fill="none" stroke="#000000" d="M298.456,-53C311.1066,-53 327.9288,-53 339.1415,-53"/>
<polygon fill="#000000" stroke="#000000" points="298.3183,-51.2501 293.3182,-53 298.3182,-54.7501 298.3183,-51.2501"/>
</g>
<!-- a3d -->
<g id="node10" class="node">
<title>a3d</title>
<polygon fill="#d3d3d3" stroke="#000000" points="429.2132,-65 405.2132,-65 405.2132,-41 429.2132,-41 429.2132,-65"/>
<text text-anchor="middle" x="417.2132" y="-49.7" font-family="Times,serif" font-size="11.00" fill="#000000">54d</text>
</g>
<!-- a2d&#45;&gt;a3d -->
<g id="edge14" class="edge">
<title>a2d-&gt;a3d</title>
<path fill="none" stroke="#000000" d="M368.3608,-53C379.9192,-53 394.8807,-53 405.1845,-53"/>
<polygon fill="#000000" stroke="#000000" points="368.3187,-51.2501 363.3186,-53 368.3186,-54.7501 368.3187,-51.2501"/>
</g>
<!-- a2d&#45;&gt;a3e -->
<g id="edge13" class="edge">
<title>a2d-&gt;a3e</title>
<path fill="none" stroke="#000000" d="M367.1249,-67.4652C378.8348,-78.1106 394.5093,-92.3601 405.1845,-102.0648"/>
<polygon fill="#000000" stroke="#000000" points="368.1955,-66.0734 363.3186,-64.0049 365.8412,-68.6632 368.1955,-66.0734"/>
</g>
<!-- a3d&#45;&gt;a3e -->
<!-- a4e -->
<g id="node12" class="node">
<title>a4e</title>
<polygon fill="#d3d3d3" stroke="#000000" points="490.2132,-125 466.2132,-125 466.2132,-101 490.2132,-101 490.2132,-125"/>
<text text-anchor="middle" x="478.2132" y="-116.3" font-family="Times,serif" font-size="11.00" fill="#000000">55c</text>
<text text-anchor="middle" x="478.2132" y="-103.1" font-family="Times,serif" font-size="11.00" fill="#000000">(hb)</text>
</g>
<!-- a3e&#45;&gt;a4e -->
<g id="edge11" class="edge">
<title>a3e-&gt;a4e</title>
<path fill="none" stroke="#000000" d="M434.3157,-113C444.4658,-113 457.0863,-113 466.1866,-113"/>
<polygon fill="#000000" stroke="#000000" points="434.2649,-111.2501 429.2648,-113 434.2648,-114.7501 434.2649,-111.2501"/>
</g>
</g>
</svg>