<?xml version="1.0" encoding="UTF-8" standalone="no"?><!DOCTYPE svg PUBLIC "-//W3C//DTD SVG 1.1//EN" "http://www.w3.org/Graphics/SVG/1.1/DTD/svg11.dtd"><!-- Generated by graphviz version 2.40.1 (20161225.0304)
 --><!-- Title: %0 Pages: 1 --><svg xmlns="http://www.w3.org/2000/svg" xmlns:xlink="http://www.w3.org/1999/xlink" width="424pt" height="271pt" viewBox="0.00 0.00 424.00 271.00">
<g id="graph0" class="graph" transform="scale(1 1) rotate(0) translate(4 267)">
<title>%0</title>
<polygon fill="#ffffff" stroke="transparent" points="-4,4 -4,-267 420,-267 420,4 -4,4"/>
<g id="clust1" class="cluster">
<title>cluster_node_afr</title>
<polygon fill="none" stroke="#000000" points="8,-8 8,-85 408,-85 408,-8 8,-8"/>
<text text-anchor="middle" x="52.337" y="-68.4" font-family="Times,serif" font-size="14.00" fill="#000000">Node (after):</text>
</g>
<g id="clust2" class="cluster">
<title>cluster_peer</title>
<polygon fill="none" stroke="transparent" points="8,-93 8,-170 408,-170 408,-93 8,-93"/>
<text text-anchor="middle" x="30.3815" y="-153.4" font-family="Times,serif" font-size="14.00" fill="#000000">Peer:</text>
</g>
<g id="clust3" class="cluster">
<title>cluster_node_bfr</title>
<polygon fill="none" stroke="#000000" points="8,-178 8,-255 408,-255 408,-178 8,-178"/>
<text text-anchor="middle" x="57.3917" y="-238.4" font-family="Times,serif" font-size="14.00" fill="#000000">Node (before):</text>
</g>
<!-- 89a -->
<g id="node1" class="node">
<title>89a</title>
<polygon fill="none" stroke="transparent" points="52,-52 16,-52 16,-16 52,-16 52,-52"/>
<text text-anchor="middle" x="34" y="-29.8" font-family="Times,serif" font-size="14.00" fill="#000000">...</text>
</g>
<!-- 90a -->
<g id="node2" class="node">
<title>90a</title>
<polygon fill="#d3d3d3" stroke="#000000" points="110,-52 74,-52 74,-16 110,-16 110,-52"/>
<text text-anchor="middle" x="92" y="-29.8" font-family="Times,serif" font-size="14.00" fill="#000000">90</text>
</g>
<!-- 89a&#45;&gt;90a -->
<g id="edge1" class="edge">
<title>89a-&gt;90a</title>
<path fill="none" stroke="#000000" d="M59.0893,-34C64.027,-34 69.1187,-34 73.7778,-34"/>
<polygon fill="#000000" stroke="#000000" points="59.0337,-31.5501 52.0336,-34 59.0336,-36.4501 59.0337,-31.5501"/>
</g>
<!-- 91a -->
<g id="node3" class="node">
<title>91a</title>
<polygon fill="#d3d3d3" stroke="#000000" points="168,-52 132,-52 132,-16 168,-16 168,-52"/>
<text text-anchor="middle" x="150" y="-29.8" font-family="Times,serif" font-size="14.00" fill="#000000">91</text>
</g>
<!-- 90a&#45;&gt;91a -->
<g id="edge2" class="edge">
<title>90a-&gt;91a</title>
<path fill="none" stroke="#000000" d="M117.0893,-34C122.027,-34 127.1187,-34 131.7778,-34"/>
<polygon fill="#000000" stroke="#000000" points="117.0337,-31.5501 110.0336,-34 117.0336,-36.4501 117.0337,-31.5501"/>
</g>
<!-- 92a -->
<g id="node4" class="node">
<title>92a</title>
<polygon fill="#d3d3d3" stroke="#000000" points="226,-52 190,-52 190,-16 226,-16 226,-52"/>
<text text-anchor="middle" x="208" y="-38.2" font-family="Times,serif" font-size="14.00" fill="#000000">92</text>
<text text-anchor="middle" x="208" y="-21.4" font-family="Times,serif" font-size="14.00" fill="#000000">(lib)</text>
</g>
<!-- 91a&#45;&gt;92a -->
<g id="edge3" class="edge">
<title>91a-&gt;92a</title>
<path fill="none" stroke="#000000" d="M175.0893,-34C180.027,-34 185.1187,-34 189.7778,-34"/>
<polygon fill="#000000" stroke="#000000" points="175.0337,-31.5501 168.0336,-34 175.0336,-36.4501 175.0337,-31.5501"/>
</g>
<!-- 93a -->
<g id="node5" class="node">
<title>93a</title>
<polygon fill="#ffffff" stroke="#000000" points="284,-52 248,-52 248,-16 284,-16 284,-52"/>
<text text-anchor="middle" x="266" y="-29.8" font-family="Times,serif" font-size="14.00" fill="#000000">93n,p</text>
</g>
<!-- 92a&#45;&gt;93a -->
<g id="edge4" class="edge">
<title>92a-&gt;93a</title>
<path fill="none" stroke="#000000" d="M233.0893,-34C238.027,-34 243.1187,-34 247.7778,-34"/>
<polygon fill="#000000" stroke="#000000" points="233.0337,-31.5501 226.0336,-34 233.0336,-36.4501 233.0337,-31.5501"/>
</g>
<!-- 94a -->
<g id="node6" class="node">
<title>94a</title>
<polygon fill="#ffffff" stroke="#000000" points="342,-52 306,-52 306,-16 342,-16 342,-52"/>
<text text-anchor="middle" x="324" y="-29.8" font-family="Times,serif" font-size="14.00" fill="#000000">94p</text>
</g>
<!-- 93a&#45;&gt;94a -->
<g id="edge5" class="edge">
<title>93a-&gt;94a</title>
<path fill="none" stroke="#000000" d="M291.0893,-34C296.027,-34 301.1187,-34 305.7778,-34"/>
<polygon fill="#000000" stroke="#000000" points="291.0337,-31.5501 284.0336,-34 291.0336,-36.4501 291.0337,-31.5501"/>
</g>
<!-- 95a -->
<g id="node7" class="node">
<title>95a</title>
<polygon fill="#ffffff" stroke="#000000" points="400,-52 364,-52 364,-16 400,-16 400,-52"/>
<text text-anchor="middle" x="382" y="-38.2" font-family="Times,serif" font-size="14.00" fill="#000000">95p</text>
<text text-anchor="middle" x="382" y="-21.4" font-family="Times,serif" font-size="14.00" fill="#000000">(hb)</text>
</g>
<!-- 94a&#45;&gt;95a -->
<g id="edge6" class="edge">
<title>94a-&gt;95a</title>
<path fill="none" stroke="#000000" d="M349.0893,-34C354.027,-34 359.1187,-34 363.7778,-34"/>
<polygon fill="#000000" stroke="#000000" points="349.0337,-31.5501 342.0336,-34 349.0336,-36.4501 349.0337,-31.5501"/>
</g>
<!-- 89p -->
<g id="node8" class="node">
<title>89p</title>
<polygon fill="none" stroke="transparent" points="52,-137 16,-137 16,-101 52,-101 52,-137"/>
<text text-anchor="middle" x="34" y="-114.8" font-family="Times,serif" font-size="14.00" fill="#000000">...</text>
</g>
<!-- 90p -->
<g id="node9" class="node">
<title>90p</title>
<polygon fill="#d3d3d3" stroke="#000000" points="110,-137 74,-137 74,-101 110,-101 110,-137"/>
<text text-anchor="middle" x="92" y="-114.8" font-family="Times,serif" font-size="14.00" fill="#000000">90</text>
</g>
<!-- 89p&#45;&gt;90p -->
<g id="edge7" class="edge">
<title>89p-&gt;90p</title>
<path fill="none" stroke="#000000" d="M59.0893,-119C64.027,-119 69.1187,-119 73.7778,-119"/>
<polygon fill="#000000" stroke="#000000" points="59.0337,-116.5501 52.0336,-119 59.0336,-121.4501 59.0337,-116.5501"/>
</g>
<!-- 91p -->
<g id="node10" class="node">
<title>91p</title>
<polygon fill="#d3d3d3" stroke="#000000" points="168,-137 132,-137 132,-101 168,-101 168,-137"/>
<text text-anchor="middle" x="150" y="-114.8" font-family="Times,serif" font-size="14.00" fill="#000000">91</text>
</g>
<!-- 90p&#45;&gt;91p -->
<g id="edge8" class="edge">
<title>90p-&gt;91p</title>
<path fill="none" stroke="#000000" d="M117.0893,-119C122.027,-119 127.1187,-119 131.7778,-119"/>
<polygon fill="#000000" stroke="#000000" points="117.0337,-116.5501 110.0336,-119 117.0336,-121.4501 117.0337,-116.5501"/>
</g>
<!-- 92p -->
<g id="node11" class="node">
<title>92p</title>
<polygon fill="#d3d3d3" stroke="#000000" points="226,-137 190,-137 190,-101 226,-101 226,-137"/>
<text text-anchor="middle" x="208" y="-123.2" font-family="Times,serif" font-size="14.00" fill="#000000">92</text>
<text text-anchor="middle" x="208" y="-106.4" font-family="Times,serif" font-size="14.00" fill="#000000">(lib)</text>
</g>
<!-- 91p&#45;&gt;92p -->
<g id="edge9" class="edge">
<title>91p-&gt;92p</title>
<path fill="none" stroke="#000000" d="M175.0893,-119C180.027,-119 185.1187,-119 189.7778,-119"/>
<polygon fill="#000000" stroke="#000000" points="175.0337,-116.5501 168.0336,-119 175.0336,-121.4501 175.0337,-116.5501"/>
</g>
<!-- 93p -->
<g id="node12" class="node">
<title>93p</title>
<polygon fill="#ffffff" stroke="#000000" points="284,-137 248,-137 248,-101 284,-101 284,-137"/>
<text text-anchor="middle" x="266" y="-114.8" font-family="Times,serif" font-size="14.00" fill="#000000">93p</text>
</g>
<!-- 92p&#45;&gt;93p -->
<g id="edge10" class="edge">
<title>92p-&gt;93p</title>
<path fill="none" stroke="#000000" d="M233.0893,-119C238.027,-119 243.1187,-119 247.7778,-119"/>
<polygon fill="#000000" stroke="#000000" points="233.0337,-116.5501 226.0336,-119 233.0336,-121.4501 233.0337,-116.5501"/>
</g>
<!-- 94p -->
<g id="node13" class="node">
<title>94p</title>
<polygon fill="#ffffff" stroke="#000000" points="342,-137 306,-137 306,-101 342,-101 342,-137"/>
<text text-anchor="middle" x="324" y="-114.8" font-family="Times,serif" font-size="14.00" fill="#000000">94p</text>
</g>
<!-- 93p&#45;&gt;94p -->
<g id="edge11" class="edge">
<title>93p-&gt;94p</title>
<path fill="none" stroke="#000000" d="M291.0893,-119C296.027,-119 301.1187,-119 305.7778,-119"/>
<polygon fill="#000000" stroke="#000000" points="291.0337,-116.5501 284.0336,-119 291.0336,-121.4501 291.0337,-116.5501"/>
</g>
<!-- 95p -->
<g id="node14" class="node">
<title>95p</title>
<polygon fill="#ffffff" stroke="#000000" points="400,-137 364,-137 364,-101 400,-101 400,-137"/>
<text text-anchor="middle" x="382" y="-123.2" font-family="Times,serif" font-size="14.00" fill="#000000">95p</text>
<text text-anchor="middle" x="382" y="-106.4" font-family="Times,serif" font-size="14.00" fill="#000000">(hb)</text>
</g>
<!-- 94p&#45;&gt;95p -->
<g id="edge12" class="edge">
<title>94p-&gt;95p</title>
<path fill="none" stroke="#000000" d="M349.0893,-119C354.027,-119 359.1187,-119 363.7778,-119"/>
<polygon fill="#000000" stroke="#000000" points="349.0337,-116.5501 342.0336,-119 349.0336,-121.4501 349.0337,-116.5501"/>
</g>
<!-- 89b -->
<g id="node15" class="node">
<title>89b</title>
<polygon fill="none" stroke="transparent" points="52,-222 16,-222 16,-186 52,-186 52,-222"/>
<text text-anchor="middle" x="34" y="-199.8" font-family="Times,serif" font-size="14.00" fill="#000000">...</text>
</g>
<!-- 90b -->
<g id="node16" class="node">
<title>90b</title>
<polygon fill="#d3d3d3" stroke="#000000" points="110,-222 74,-222 74,-186 110,-186 110,-222"/>
<text text-anchor="middle" x="92" y="-199.8" font-family="Times,serif" font-size="14.00" fill="#000000">90</text>
</g>
<!-- 89b&#45;&gt;90b -->
<g id="edge13" class="edge">
<title>89b-&gt;90b</title>
<path fill="none" stroke="#000000" d="M59.0893,-204C64.027,-204 69.1187,-204 73.7778,-204"/>
<polygon fill="#000000" stroke="#000000" points="59.0337,-201.5501 52.0336,-204 59.0336,-206.4501 59.0337,-201.5501"/>
</g>
<!-- 91b -->
<g id="node17" class="node">
<title>91b</title>
<polygon fill="#d3d3d3" stroke="#000000" points="168,-222 132,-222 132,-186 168,-186 168,-222"/>
<text text-anchor="middle" x="150" y="-199.8" font-family="Times,serif" font-size="14.00" fill="#000000">91</text>
</g>
<!-- 90b&#45;&gt;91b -->
<g id="edge14" class="edge">
<title>90b-&gt;91b</title>
<path fill="none" stroke="#000000" d="M117.0893,-204C122.027,-204 127.1187,-204 131.7778,-204"/>
<polygon fill="#000000" stroke="#000000" points="117.0337,-201.5501 110.0336,-204 117.0336,-206.4501 117.0337,-201.5501"/>
</g>
<!-- 92b -->
<g id="node18" class="node">
<title>92b</title>
<polygon fill="#d3d3d3" stroke="#000000" points="226,-222 190,-222 190,-186 226,-186 226,-222"/>
<text text-anchor="middle" x="208" y="-208.2" font-family="Times,serif" font-size="14.00" fill="#000000">92</text>
<text text-anchor="middle" x="208" y="-191.4" font-family="Times,serif" font-size="14.00" fill="#000000">(lib)</text>
</g>
<!-- 91b&#45;&gt;92b -->
<g id="edge15" class="edge">
<title>91b-&gt;92b</title>
<path fill="none" stroke="#000000" d="M175.0893,-204C180.027,-204 185.1187,-204 189.7778,-204"/>
<polygon fill="#000000" stroke="#000000" points="175.0337,-201.5501 168.0336,-204 175.0336,-206.4501 175.0337,-201.5501"/>
</g>
<!-- 93b -->
<g id="node19" class="node">
<title>93b</title>
<polygon fill="#ffffff" stroke="#000000" points="284,-222 248,-222 248,-186 284,-186 284,-222"/>
<text text-anchor="middle" x="266" y="-199.8" font-family="Times,serif" font-size="14.00" fill="#000000">93n</text>
</g>
<!-- 92b&#45;&gt;93b -->
<g id="edge16" class="edge">
<title>92b-&gt;93b</title>
<path fill="none" stroke="#000000" d="M233.0893,-204C238.027,-204 243.1187,-204 247.7778,-204"/>
<polygon fill="#000000" stroke="#000000" points="233.0337,-201.5501 226.0336,-204 233.0336,-206.4501 233.0337,-201.5501"/>
</g>
<!-- 94b -->
<g id="node20" class="node">
<title>94b</title>
<polygon fill="#ffffff" stroke="#000000" points="342,-222 306,-222 306,-186 342,-186 342,-222"/>
<text text-anchor="middle" x="324" y="-208.2" font-family="Times,serif" font-size="14.00" fill="#000000">94n</text>
<text text-anchor="middle" x="324" y="-191.4" font-family="Times,serif" font-size="14.00" fill="#000000">(hb)</text>
</g>
<!-- 93b&#45;&gt;94b -->
<g id="edge17" class="edge">
<title>93b-&gt;94b</title>
<path fill="none" stroke="#000000" d="M291.0893,-204C296.027,-204 301.1187,-204 305.7778,-204"/>
<polygon fill="#000000" stroke="#000000" points="291.0337,-201.5501 284.0336,-204 291.0336,-206.4501 291.0337,-201.5501"/>
</g>
<!-- 95b -->
<g id="node21" class="node">
<title>95b</title>
<polygon fill="none" stroke="transparent" points="400,-222 364,-222 364,-186 400,-186 400,-222"/>
</g>
<!-- 94b&#45;&gt;95b -->
</g>
</svg>