<?xml version="1.0" encoding="UTF-8" standalone="no"?><!DOCTYPE svg PUBLIC "-//W3C//DTD SVG 1.1//EN" "http://www.w3.org/Graphics/SVG/1.1/DTD/svg11.dtd"><!-- Generated by graphviz version 2.40.1 (20161225.0304)
 --><!-- Title: %0 Pages: 1 --><svg xmlns="http://www.w3.org/2000/svg" xmlns:xlink="http://www.w3.org/1999/xlink" width="483pt" height="297pt" viewBox="0.00 0.00 483.00 296.53">
<g id="graph0" class="graph" transform="scale(1 1) rotate(0) translate(4 292.5313)">
<title>%0</title>
<polygon fill="#ffffff" stroke="transparent" points="-4,4 -4,-292.5313 479,-292.5313 479,4 -4,4"/>
<g id="clust1" class="cluster">
<title>cluster_node</title>
<polygon fill="none" stroke="#000000" points="8,-8 8,-280.5313 226,-280.5313 226,-8 8,-8"/>
<text text-anchor="middle" x="117" y="-263.9313" font-family="Times,serif" font-size="14.00" fill="#000000">Node A (node)</text>
</g>
<g id="clust2" class="cluster">
<title>cluster_chain</title>
<polygon fill="none" stroke="#000000" stroke-dasharray="5,2" points="16,-16 16,-83.3 218,-83.3 218,-16 16,-16"/>
<text text-anchor="middle" x="117" y="-24.2" font-family="Times,serif" font-size="14.00" fill="#000000">local chain</text>
</g>
<g id="clust4" class="cluster">
<title>cluster_peer</title>
<polygon fill="none" stroke="#000000" points="249,-8 249,-280.5313 467,-280.5313 467,-8 249,-8"/>
<text text-anchor="middle" x="358" y="-263.9313" font-family="Times,serif" font-size="14.00" fill="#000000">Node B (peer)</text>
</g>
<g id="clust5" class="cluster">
<title>cluster_chain2</title>
<polygon fill="none" stroke="#000000" stroke-dasharray="5,2" points="257,-16 257,-83.3 459,-83.3 459,-16 257,-16"/>
<text text-anchor="middle" x="358" y="-24.2" font-family="Times,serif" font-size="14.00" fill="#000000">local chain</text>
</g>
<!-- net_plugin -->
<g id="node1" class="node">
<title>net_plugin</title>
<ellipse fill="#d3d3d3" stroke="#000000" cx="124" cy="-218.3156" rx="37.3372" ry="29.3315"/>
<text text-anchor="middle" x="124" y="-222.5156" font-family="Times,serif" font-size="14.00" fill="#000000">Net</text>
<text text-anchor="middle" x="124" y="-205.7156" font-family="Times,serif" font-size="14.00" fill="#000000">Plugin</text>
</g>
<!-- controller -->
<g id="node2" class="node">
<title>controller</title>
<polygon fill="#d3d3d3" stroke="#000000" points="115.5456,-152.7019 42.4544,-152.7019 42.4544,-111.4981 115.5456,-111.4981 115.5456,-152.7019"/>
<text text-anchor="middle" x="79" y="-136.3" font-family="Times,serif" font-size="14.00" fill="#000000">Chain</text>
<text text-anchor="middle" x="79" y="-119.5" font-family="Times,serif" font-size="14.00" fill="#000000">Controller</text>
</g>
<!-- net_plugin&#45;&gt;controller -->
<g id="edge5" class="edge">
<title>net_plugin-&gt;controller</title>
<path fill="none" stroke="#000000" d="M109.7617,-191.0365C104.3302,-180.6303 98.1529,-168.795 92.7661,-158.4745"/>
<polygon fill="#000000" stroke="#000000" points="94.5025,-157.2628 89.8646,-152.9154 90.7792,-159.2062 94.5025,-157.2628"/>
</g>
<!-- serializer -->
<g id="node3" class="node">
<title>serializer</title>
<polygon fill="#d3d3d3" stroke="#000000" points="203.635,-152.7019 134.365,-152.7019 134.365,-111.4981 203.635,-111.4981 203.635,-152.7019"/>
<text text-anchor="middle" x="169" y="-136.3" font-family="Times,serif" font-size="14.00" fill="#000000">Net</text>
<text text-anchor="middle" x="169" y="-119.5" font-family="Times,serif" font-size="14.00" fill="#000000">Serializer</text>
</g>
<!-- net_plugin&#45;&gt;serializer -->
<g id="edge6" class="edge">
<title>net_plugin-&gt;serializer</title>
<path fill="none" stroke="#000000" d="M138.2383,-191.0365C143.6698,-180.6303 149.8471,-168.795 155.2339,-158.4745"/>
<polygon fill="#000000" stroke="#000000" points="157.2208,-159.2062 158.1354,-152.9154 153.4975,-157.2628 157.2208,-159.2062"/>
</g>
<!-- b1 -->
<g id="node5" class="node">
<title>b1</title>
<polygon fill="#d3d3d3" stroke="#000000" points="90,-73.05 68,-73.05 68,-51.05 90,-51.05 90,-73.05"/>
</g>
<!-- controller&#45;&gt;b1 -->
<g id="edge7" class="edge">
<title>controller-&gt;b1</title>
<path fill="none" stroke="#000000" d="M79,-111.4616C79,-104.5326 79,-96.6944 79,-89.336"/>
<polygon fill="#000000" stroke="#000000" points="81.1001,-89.2982 79,-83.2982 76.9001,-89.2982 81.1001,-89.2982"/>
</g>
<!-- serializer2 -->
<g id="node10" class="node">
<title>serializer2</title>
<polygon fill="#d3d3d3" stroke="#000000" points="344.635,-152.7019 275.365,-152.7019 275.365,-111.4981 344.635,-111.4981 344.635,-152.7019"/>
<text text-anchor="middle" x="310" y="-136.3" font-family="Times,serif" font-size="14.00" fill="#000000">Net</text>
<text text-anchor="middle" x="310" y="-119.5" font-family="Times,serif" font-size="14.00" fill="#000000">Serializer</text>
</g>
<!-- serializer&#45;&gt;serializer2 -->
<g id="edge15" class="edge">
<title>serializer-&gt;serializer2</title>
<path fill="none" stroke="#000000" stroke-dasharray="5,2" d="M209.8369,-132.1C229.5579,-132.1 249.2788,-132.1 268.9998,-132.1"/>
<polygon fill="#000000" stroke="#000000" points="209.6993,-130.0001 203.6992,-132.1 209.6992,-134.2001 209.6993,-130.0001"/>
<polygon fill="#000000" stroke="#000000" points="269.1201,-134.2001 275.1201,-132.1 269.12,-130.0001 269.1201,-134.2001"/>
</g>
<!-- b0 -->
<g id="node4" class="node">
<title>b0</title>
<polygon fill="none" stroke="transparent" points="50.5048,-75.5548 23.4952,-75.5548 23.4952,-48.5452 50.5048,-48.5452 50.5048,-75.5548"/>
<text text-anchor="middle" x="37" y="-57.85" font-family="Times,serif" font-size="14.00" fill="#000000">...</text>
</g>
<!-- b0&#45;&gt;b1 -->
<g id="edge1" class="edge">
<title>b0-&gt;b1</title>
<path fill="none" stroke="#000000" d="M55.6175,-62.05C59.6946,-62.05 63.7717,-62.05 67.8489,-62.05"/>
<polygon fill="#000000" stroke="#000000" points="55.4532,-60.3001 50.4531,-62.05 55.4531,-63.8001 55.4532,-60.3001"/>
</g>
<!-- b2 -->
<g id="node6" class="node">
<title>b2</title>
<polygon fill="#d3d3d3" stroke="#000000" points="130,-73.05 108,-73.05 108,-51.05 130,-51.05 130,-73.05"/>
</g>
<!-- b1&#45;&gt;b2 -->
<g id="edge2" class="edge">
<title>b1-&gt;b2</title>
<path fill="none" stroke="#000000" d="M95.4511,-62.05C99.5573,-62.05 103.6634,-62.05 107.7695,-62.05"/>
<polygon fill="#000000" stroke="#000000" points="95.25,-60.3001 90.25,-62.05 95.25,-63.8001 95.25,-60.3001"/>
</g>
<!-- b3 -->
<g id="node7" class="node">
<title>b3</title>
<polygon fill="#d3d3d3" stroke="#000000" points="170,-73.05 148,-73.05 148,-51.05 170,-51.05 170,-73.05"/>
</g>
<!-- b2&#45;&gt;b3 -->
<g id="edge3" class="edge">
<title>b2-&gt;b3</title>
<path fill="none" stroke="#000000" d="M135.4511,-62.05C139.5573,-62.05 143.6634,-62.05 147.7695,-62.05"/>
<polygon fill="#000000" stroke="#000000" points="135.25,-60.3001 130.25,-62.05 135.25,-63.8001 135.25,-60.3001"/>
</g>
<!-- b4 -->
<g id="node8" class="node">
<title>b4</title>
<polygon fill="#d3d3d3" stroke="#000000" points="210,-73.05 188,-73.05 188,-51.05 210,-51.05 210,-73.05"/>
</g>
<!-- b3&#45;&gt;b4 -->
<g id="edge4" class="edge">
<title>b3-&gt;b4</title>
<path fill="none" stroke="#000000" d="M175.4511,-62.05C179.5573,-62.05 183.6634,-62.05 187.7695,-62.05"/>
<polygon fill="#000000" stroke="#000000" points="175.25,-60.3001 170.25,-62.05 175.25,-63.8001 175.25,-60.3001"/>
</g>
<!-- net_plugin2 -->
<g id="node9" class="node">
<title>net_plugin2</title>
<ellipse fill="#d3d3d3" stroke="#000000" cx="355" cy="-218.3156" rx="37.3372" ry="29.3315"/>
<text text-anchor="middle" x="355" y="-222.5156" font-family="Times,serif" font-size="14.00" fill="#000000">Net</text>
<text text-anchor="middle" x="355" y="-205.7156" font-family="Times,serif" font-size="14.00" fill="#000000">Plugin</text>
</g>
<!-- net_plugin2&#45;&gt;serializer2 -->
<g id="edge12" class="edge">
<title>net_plugin2-&gt;serializer2</title>
<path fill="none" stroke="#000000" d="M340.7617,-191.0365C335.3302,-180.6303 329.1529,-168.795 323.7661,-158.4745"/>
<polygon fill="#000000" stroke="#000000" points="325.5025,-157.2628 320.8646,-152.9154 321.7792,-159.2062 325.5025,-157.2628"/>
</g>
<!-- controller2 -->
<g id="node11" class="node">
<title>controller2</title>
<polygon fill="#d3d3d3" stroke="#000000" points="436.5456,-152.7019 363.4544,-152.7019 363.4544,-111.4981 436.5456,-111.4981 436.5456,-152.7019"/>
<text text-anchor="middle" x="400" y="-136.3" font-family="Times,serif" font-size="14.00" fill="#000000">Chain</text>
<text text-anchor="middle" x="400" y="-119.5" font-family="Times,serif" font-size="14.00" fill="#000000">Controller</text>
</g>
<!-- net_plugin2&#45;&gt;controller2 -->
<g id="edge13" class="edge">
<title>net_plugin2-&gt;controller2</title>
<path fill="none" stroke="#000000" d="M369.2383,-191.0365C374.6698,-180.6303 380.8471,-168.795 386.2339,-158.4745"/>
<polygon fill="#000000" stroke="#000000" points="388.2208,-159.2062 389.1354,-152.9154 384.4975,-157.2628 388.2208,-159.2062"/>
</g>
<!-- a3 -->
<g id="node15" class="node">
<title>a3</title>
<polygon fill="#d3d3d3" stroke="#000000" points="411,-73.05 389,-73.05 389,-51.05 411,-51.05 411,-73.05"/>
</g>
<!-- controller2&#45;&gt;a3 -->
<g id="edge14" class="edge">
<title>controller2-&gt;a3</title>
<path fill="none" stroke="#000000" d="M400,-111.4616C400,-104.5326 400,-96.6944 400,-89.336"/>
<polygon fill="#000000" stroke="#000000" points="402.1001,-89.2982 400,-83.2982 397.9001,-89.2982 402.1001,-89.2982"/>
</g>
<!-- a0 -->
<g id="node12" class="node">
<title>a0</title>
<polygon fill="none" stroke="transparent" points="291.5048,-75.5548 264.4952,-75.5548 264.4952,-48.5452 291.5048,-48.5452 291.5048,-75.5548"/>
<text text-anchor="middle" x="278" y="-57.85" font-family="Times,serif" font-size="14.00" fill="#000000">...</text>
</g>
<!-- a1 -->
<g id="node13" class="node">
<title>a1</title>
<polygon fill="#d3d3d3" stroke="#000000" points="331,-73.05 309,-73.05 309,-51.05 331,-51.05 331,-73.05"/>
</g>
<!-- a0&#45;&gt;a1 -->
<g id="edge8" class="edge">
<title>a0-&gt;a1</title>
<path fill="none" stroke="#000000" d="M296.6175,-62.05C300.6946,-62.05 304.7717,-62.05 308.8489,-62.05"/>
<polygon fill="#000000" stroke="#000000" points="296.4532,-60.3001 291.4531,-62.05 296.4531,-63.8001 296.4532,-60.3001"/>
</g>
<!-- a2 -->
<g id="node14" class="node">
<title>a2</title>
<polygon fill="#d3d3d3" stroke="#000000" points="371,-73.05 349,-73.05 349,-51.05 371,-51.05 371,-73.05"/>
</g>
<!-- a1&#45;&gt;a2 -->
<g id="edge9" class="edge">
<title>a1-&gt;a2</title>
<path fill="none" stroke="#000000" d="M336.4511,-62.05C340.5573,-62.05 344.6634,-62.05 348.7695,-62.05"/>
<polygon fill="#000000" stroke="#000000" points="336.25,-60.3001 331.25,-62.05 336.25,-63.8001 336.25,-60.3001"/>
</g>
<!-- a2&#45;&gt;a3 -->
<g id="edge10" class="edge">
<title>a2-&gt;a3</title>
<path fill="none" stroke="#000000" d="M376.4511,-62.05C380.5573,-62.05 384.6634,-62.05 388.7695,-62.05"/>
<polygon fill="#000000" stroke="#000000" points="376.25,-60.3001 371.25,-62.05 376.25,-63.8001 376.25,-60.3001"/>
</g>
<!-- a4 -->
<g id="node16" class="node">
<title>a4</title>
<polygon fill="#d3d3d3" stroke="#000000" points="451,-73.05 429,-73.05 429,-51.05 451,-51.05 451,-73.05"/>
</g>
<!-- a3&#45;&gt;a4 -->
<g id="edge11" class="edge">
<title>a3-&gt;a4</title>
<path fill="none" stroke="#000000" d="M416.4511,-62.05C420.5573,-62.05 424.6634,-62.05 428.7695,-62.05"/>
<polygon fill="#000000" stroke="#000000" points="416.25,-60.3001 411.25,-62.05 416.25,-63.8001 416.25,-60.3001"/>
</g>
</g>
</svg>