<?xml version="1.0" encoding="UTF-8" standalone="no"?><!DOCTYPE svg PUBLIC "-//W3C//DTD SVG 1.1//EN" "http://www.w3.org/Graphics/SVG/1.1/DTD/svg11.dtd"><!-- Generated by graphviz version 2.40.1 (20161225.0304)
 --><!-- Title: %0 Pages: 1 --><svg xmlns="http://www.w3.org/2000/svg" xmlns:xlink="http://www.w3.org/1999/xlink" width="434pt" height="310pt" viewBox="0.00 0.00 434.00 309.60">
<g id="graph0" class="graph" transform="scale(1 1) rotate(0) translate(4 305.6)">
<title>%0</title>
<polygon fill="#ffffff" stroke="transparent" points="-4,4 -4,-305.6 430,-305.6 430,4 -4,4"/>
<g id="clust1" class="cluster">
<title>cluster_instance</title>
<polygon fill="none" stroke="#000000" points="8,-8 8,-293.6 418,-293.6 418,-8 8,-8"/>
<text text-anchor="middle" x="213" y="-277" font-family="Times,serif" font-size="14.00" fill="#000000">Action Instance</text>
</g>
<g id="clust2" class="cluster">
<title>cluster_w</title>
</g>
<g id="clust3" class="cluster">
<title>cluster_perms</title>
<polygon fill="none" stroke="#000000" stroke-dasharray="5,2" points="16,-64.8 16,-212 410,-212 410,-64.8 16,-64.8"/>
<text text-anchor="middle" x="213" y="-195.4" font-family="Times,serif" font-size="14.00" fill="#000000">authorization list</text>
</g>
<g id="clust4" class="cluster">
<title>cluster_perm_n</title>
<polygon fill="none" stroke="#000000" stroke-dasharray="5,2" points="298,-72.8 298,-179.2 402,-179.2 402,-72.8 298,-72.8"/>
<text text-anchor="middle" x="350" y="-162.6" font-family="Times,serif" font-size="14.00" fill="#000000">auth n</text>
</g>
<g id="clust5" class="cluster">
<title>cluster_perm_e</title>
<polygon fill="none" stroke="transparent" stroke-dasharray="5,2" points="248,-113.6 248,-154.4 290,-154.4 290,-113.6 248,-113.6"/>
</g>
<g id="clust6" class="cluster">
<title>cluster_perm_2</title>
<polygon fill="none" stroke="#000000" stroke-dasharray="5,2" points="136,-72.8 136,-179.2 240,-179.2 240,-72.8 136,-72.8"/>
<text text-anchor="middle" x="188" y="-162.6" font-family="Times,serif" font-size="14.00" fill="#000000">auth 2</text>
</g>
<g id="clust7" class="cluster">
<title>cluster_perm_1</title>
<polygon fill="none" stroke="#000000" stroke-dasharray="5,2" points="24,-72.8 24,-179.2 128,-179.2 128,-72.8 24,-72.8"/>
<text text-anchor="middle" x="76" y="-162.6" font-family="Times,serif" font-size="14.00" fill="#000000">auth 1</text>
</g>
<g id="clust9" class="cluster">
<title>cluster_data</title>
</g>
<!-- empty_node -->
<g id="node1" class="node">
<title>empty_node</title>
<polygon fill="none" stroke="transparent" points="402.5,-249.4 323.5,-249.4 323.5,-231.4 402.5,-231.4 402.5,-249.4"/>
</g>
<!-- act_name -->
<g id="node2" class="node">
<title>act_name</title>
<polygon fill="#d3d3d3" stroke="#000000" points="309.0302,-252.7008 224.9698,-252.7008 224.9698,-228.0992 309.0302,-228.0992 309.0302,-252.7008"/>
<text text-anchor="middle" x="267" y="-236.2" font-family="Times,serif" font-size="14.00" fill="#000000">action name</text>
</g>
<!-- acct_name -->
<g id="node3" class="node">
<title>acct_name</title>
<polygon fill="#d3d3d3" stroke="#000000" points="210.8549,-252.7008 117.1451,-252.7008 117.1451,-228.0992 210.8549,-228.0992 210.8549,-252.7008"/>
<text text-anchor="middle" x="164" y="-236.2" font-family="Times,serif" font-size="14.00" fill="#000000">account name</text>
</g>
<!-- a2 -->
<g id="node7" class="node">
<title>a2</title>
<polygon fill="#d3d3d3" stroke="#000000" points="206.4825,-146.3008 151.5175,-146.3008 151.5175,-121.6992 206.4825,-121.6992 206.4825,-146.3008"/>
<text text-anchor="middle" x="179" y="-129.8" font-family="Times,serif" font-size="14.00" fill="#000000">actor 2</text>
</g>
<!-- acct_name&#45;&gt;a2 -->
<g id="edge4" class="edge">
<title>acct_name-&gt;a2</title>
<path fill="none" stroke="transparent" d="M165.7796,-227.7767C168.4071,-209.1389 173.3408,-174.1425 176.3816,-152.5732"/>
<polygon fill="transparent" stroke="transparent" points="178.4645,-152.8413 177.2227,-146.6069 174.3056,-152.2549 178.4645,-152.8413"/>
</g>
<!-- an -->
<g id="node4" class="node">
<title>an</title>
<polygon fill="#d3d3d3" stroke="#000000" points="377.4825,-146.3008 322.5175,-146.3008 322.5175,-121.6992 377.4825,-121.6992 377.4825,-146.3008"/>
<text text-anchor="middle" x="350" y="-129.8" font-family="Times,serif" font-size="14.00" fill="#000000">actor n</text>
</g>
<!-- pn -->
<g id="node5" class="node">
<title>pn</title>
<polygon fill="#d3d3d3" stroke="#000000" points="393.9362,-105.5008 306.0638,-105.5008 306.0638,-80.8992 393.9362,-80.8992 393.9362,-105.5008"/>
<text text-anchor="middle" x="350" y="-89" font-family="Times,serif" font-size="14.00" fill="#000000">permission n</text>
</g>
<!-- an&#45;&gt;pn -->
<g id="edge1" class="edge">
<title>an-&gt;pn</title>
<path fill="none" stroke="transparent" d="M350,-121.537C350,-118.4524 350,-115.081 350,-111.7741"/>
<polygon fill="transparent" stroke="transparent" points="352.1001,-111.5867 350,-105.5867 347.9001,-111.5868 352.1001,-111.5867"/>
</g>
<!-- ae -->
<g id="node6" class="node">
<title>ae</title>
<polygon fill="none" stroke="transparent" points="282.5048,-146.3008 255.4952,-146.3008 255.4952,-121.6992 282.5048,-121.6992 282.5048,-146.3008"/>
<text text-anchor="middle" x="269" y="-129.8" font-family="Times,serif" font-size="14.00" fill="#000000">...</text>
</g>
<!-- p2 -->
<g id="node8" class="node">
<title>p2</title>
<polygon fill="#d3d3d3" stroke="#000000" points="231.9362,-105.5008 144.0638,-105.5008 144.0638,-80.8992 231.9362,-80.8992 231.9362,-105.5008"/>
<text text-anchor="middle" x="188" y="-89" font-family="Times,serif" font-size="14.00" fill="#000000">permission 2</text>
</g>
<!-- a2&#45;&gt;p2 -->
<g id="edge2" class="edge">
<title>a2-&gt;p2</title>
<path fill="none" stroke="transparent" d="M181.7492,-121.537C182.4471,-118.3733 183.2115,-114.9079 183.9589,-111.5198"/>
<polygon fill="transparent" stroke="transparent" points="186.0258,-111.8983 185.2676,-105.5867 181.9244,-110.9935 186.0258,-111.8983"/>
</g>
<!-- act_data -->
<g id="node11" class="node">
<title>act_data</title>
<polygon fill="#d3d3d3" stroke="#000000" points="402,-48.7008 24,-48.7008 24,-24.0992 402,-24.0992 402,-48.7008"/>
<text text-anchor="middle" x="213" y="-32.2" font-family="Times,serif" font-size="14.00" fill="#000000">action data</text>
</g>
<!-- p2&#45;&gt;act_data -->
<g id="edge5" class="edge">
<title>p2-&gt;act_data</title>
<path fill="none" stroke="transparent" d="M193.4246,-80.8752C196.785,-73.2404 201.1627,-63.2944 204.9258,-54.7445"/>
<polygon fill="transparent" stroke="transparent" points="206.9178,-55.4316 207.4129,-49.094 203.0737,-53.7396 206.9178,-55.4316"/>
</g>
<!-- a1 -->
<g id="node9" class="node">
<title>a1</title>
<polygon fill="#d3d3d3" stroke="#000000" points="103.4825,-146.3008 48.5175,-146.3008 48.5175,-121.6992 103.4825,-121.6992 103.4825,-146.3008"/>
<text text-anchor="middle" x="76" y="-129.8" font-family="Times,serif" font-size="14.00" fill="#000000">actor 1</text>
</g>
<!-- p1 -->
<g id="node10" class="node">
<title>p1</title>
<polygon fill="#d3d3d3" stroke="#000000" points="119.9362,-105.5008 32.0638,-105.5008 32.0638,-80.8992 119.9362,-80.8992 119.9362,-105.5008"/>
<text text-anchor="middle" x="76" y="-89" font-family="Times,serif" font-size="14.00" fill="#000000">permission 1</text>
</g>
<!-- a1&#45;&gt;p1 -->
<g id="edge3" class="edge">
<title>a1-&gt;p1</title>
<path fill="none" stroke="transparent" d="M76,-121.537C76,-118.4524 76,-115.081 76,-111.7741"/>
<polygon fill="transparent" stroke="transparent" points="78.1001,-111.5867 76,-105.5867 73.9001,-111.5868 78.1001,-111.5867"/>
</g>
</g>
</svg>